<?xml version="1.0" encoding="UTF-8" standalone="no"?>
<!-- Generator: Adobe Illustrator 27.6.1, SVG Export Plug-In . SVG Version: 6.00 Build 0)  -->

<svg
   version="1.1"
   id="Layer_1"
   x="0px"
   y="0px"
   viewBox="0 0 1000 1000"
   style="enable-background:new 0 0 1000 1000;"
   xml:space="preserve"
   sodipodi:docname="IO2.svg"
   inkscape:version="1.1.2 (b8e25be833, 2022-02-05)"
   inkscape:export-filename="C:\Users\Jack\Desktop\IO.png"
   inkscape:export-xdpi="400"
   inkscape:export-ydpi="400"
   xmlns:inkscape="http://www.inkscape.org/namespaces/inkscape"
   xmlns:sodipodi="http://sodipodi.sourceforge.net/DTD/sodipodi-0.dtd"
   xmlns="http://www.w3.org/2000/svg"
   xmlns:svg="http://www.w3.org/2000/svg"><defs
   id="defs17" /><sodipodi:namedview
   id="namedview15"
   pagecolor="#ffffff"
   bordercolor="#666666"
   borderopacity="1.0"
   inkscape:pageshadow="2"
   inkscape:pageopacity="0.0"
   inkscape:pagecheckerboard="0"
   showgrid="false"
   inkscape:zoom="0.71900003"
   inkscape:cx="415.15993"
   inkscape:cy="507.64949"
   inkscape:window-width="1920"
   inkscape:window-height="1017"
   inkscape:window-x="-8"
   inkscape:window-y="-8"
   inkscape:window-maximized="1"
   inkscape:current-layer="Layer_1" />
<style
   type="text/css"
   id="style2">
	.st0{fill:none;}
	.st1{font-family:'FuturaBT-Book';}
	.st2{font-size:400px;}
</style>
<rect
   x="127.97886"
   y="209.31223"
   class="st0"
   width="194.69621"
   height="557.73389"
   id="rect4"
   inkscape:export-filename="C:\Users\Jack\Desktop\IO.png"
   inkscape:export-xdpi="400"
   inkscape:export-ydpi="400"
   style="stroke-width:1.8076" />


<g
   id="SvgjsG1012"
   transform="matrix(3.1573578,0,0,3.1573578,-442.46985,-433.72954)"
   inkscape:export-filename="C:\Users\Jack\Desktop\IO.png"
   inkscape:export-xdpi="400"
   inkscape:export-ydpi="400"
   style="fill:#ffffff;fill-opacity:1;stroke-width:1.00016;stroke-miterlimit:4;stroke-dasharray:none">
	
		<g
   id="SvgjsG1012_00000008869466607755194730000015013796965116952991_"
   transform="matrix(1.746716,0,0,1.746716,-7.2940798,-7.2940583)"
   style="fill:#ffffff;fill-opacity:1;stroke-width:0.572596;stroke-miterlimit:4;stroke-dasharray:none">
		<g
   id="g5_00000065038355775883445470000010213729991408108449_"
   transform="translate(0,-952.36218)"
   style="fill:#ffffff;fill-opacity:1;stroke-width:0.572596;stroke-miterlimit:4;stroke-dasharray:none">
			<path
   id="path3_00000010292694701656006820000017149494175981554588_"
   d="m 205.58,1089.52 c -6.38,-3.96 -13.87,-6.24 -21.91,-6.24 -23.02,0 -41.73,18.75 -41.73,41.83 0,8.02 2.25,15.5 6.16,21.86 -9.18,12.41 -13.68,21.87 -10.89,24.67 2.79,2.8 12.29,-1.67 24.68,-10.88 6.35,3.9 13.8,6.14 21.78,6.14 23.02,0 41.73,-18.72 41.73,-41.8 0,-8.06 -2.28,-15.6 -6.23,-21.99 8.81,-12.05 13.04,-21.18 10.3,-23.92 -4.72,-3.29 -19.64,7.24 -23.89,10.33 z m 17.15,-3.56 c 1.91,1.91 -0.15,7.44 -5.02,14.97 -2.73,-3.86 -6.09,-7.23 -9.94,-9.97 3.96,-2.48 10.36,-7.52 14.96,-5 z m -50.37,63.86 c -1.85,1.46 -7.25,5.72 -8.97,6.96 -10.39,-6.69 -17.28,-18.35 -17.28,-31.67 0,-20.82 16.79,-37.68 37.56,-37.68 13.24,0 24.84,6.86 31.53,17.22 -1.22,1.73 -5.46,7.15 -6.91,9.02 m 0,0 c -4.93,6.04 -10.83,12.59 -17.48,19.25 -6.37,6.38 -12.64,12.09 -18.45,16.9 m 36.78,-34.06 c 1.51,-1.84 5.99,-7.27 7.34,-9.02 v 0 c 3.02,5.43 4.76,11.7 4.76,18.37 0,20.82 -16.79,37.65 -37.56,37.65 -6.62,0 -12.83,-1.73 -18.23,-4.74 1.74,-1.36 7.14,-5.84 8.97,-7.35 m -0.01,-0.01 c 5.68,-4.88 11.64,-10.43 17.67,-16.47 6.28,-6.3 12.02,-12.52 17.05,-18.43 m -59.63,33.34 c 2.78,3.97 6.24,7.44 10.2,10.23 -7.92,5.26 -13.77,7.54 -15.75,5.56 -1.97,-1.99 0.3,-7.85 5.55,-15.79 z"
   style="fill:#ffffff;fill-opacity:1;stroke-width:0.572596;stroke-miterlimit:4;stroke-dasharray:none" />
		</g>
	</g>
</g>
<path
   sodipodi:type="star"
   style="fill:none;fill-opacity:1;stroke:#006eff;stroke-width:22.5;stroke-linecap:square;stroke-linejoin:round;stroke-miterlimit:4;stroke-dasharray:none;stroke-opacity:1;paint-order:markers stroke fill"
   id="path1878"
   inkscape:flatsided="true"
   sodipodi:sides="6"
   sodipodi:cx="505.92398"
   sodipodi:cy="507.95636"
   sodipodi:r1="265.15884"
   sodipodi:r2="229.63429"
   sodipodi:arg1="1.0471976"
   sodipodi:arg2="1.5707963"
   inkscape:rounded="0"
   inkscape:randomized="0"
   d="m 638.50339,737.59066 -265.15884,-10e-6 -132.57941,-229.6343 132.57943,-229.63429 265.15884,10e-6 132.57941,229.6343 z"
   inkscape:export-filename="C:\Users\Jack\Desktop\IO.png"
   inkscape:export-xdpi="400"
   inkscape:export-ydpi="400"
   transform="matrix(1.5542994,-0.89737517,0.89737517,1.5542994,-742.50263,165.529)" /><rect
   style="fill:#ffffff;fill-opacity:1;stroke:none;stroke-width:0.803;stroke-linecap:square;stroke-linejoin:round;stroke-miterlimit:4;stroke-dasharray:none;paint-order:markers stroke fill"
   id="rect10704"
   width="27.113949"
   height="517.89813"
   x="201.11606"
   y="237.81133"
   inkscape:export-filename="C:\Users\Jack\Desktop\IO.png"
   inkscape:export-xdpi="400"
   inkscape:export-ydpi="400" /></svg>
